<svg width="1360" height="170" viewBox="0 0 1360 170" fill="none" xmlns="http://www.w3.org/2000/svg">
<path d="M80.1415 170C64.1589 170 50.079 166.339 37.9017 159.017C25.8767 151.696 16.5154 141.629 9.81791 128.816C3.27264 115.85 0 101.207 0 84.8856C0 68.5644 3.27264 53.9973 9.81791 41.1844C16.5154 28.2189 25.8767 18.1516 37.9017 10.9825C50.079 3.66083 64.1589 0 80.1415 0C96.1242 0 110.128 3.66083 122.153 10.9825C134.33 18.1516 143.692 28.2189 150.237 41.1844C156.934 53.9973 160.283 68.5644 160.283 84.8856C160.283 101.207 156.934 115.85 150.237 128.816C143.692 141.629 134.33 151.696 122.153 159.017C110.128 166.339 96.1242 170 80.1415 170ZM80.1415 148.264C92.471 148.264 102.669 145.442 110.737 139.798C118.804 134.154 124.665 126.604 128.318 117.147C132.123 107.537 134.026 96.7833 134.026 84.8856C134.026 73.1404 132.123 62.5393 128.318 53.0821C124.665 43.4724 118.804 35.8457 110.737 30.2019C102.669 24.5581 92.471 21.7362 80.1415 21.7362C67.8121 21.7362 57.6136 24.5581 49.5462 30.2019C41.4788 35.8457 35.5424 43.4724 31.737 53.0821C28.0838 62.5393 26.2572 73.1404 26.2572 84.8856C26.2572 96.7833 28.0838 107.537 31.737 117.147C35.5424 126.604 41.4788 134.154 49.5462 139.798C57.6136 145.442 67.8121 148.264 80.1415 148.264Z" fill="#C0C0C0"/>
<path d="M179.1 3.20323H204.216V145.061H286.869V166.797H179.1V3.20323Z" fill="#C0C0C0"/>
<path d="M346.369 3.20323H373.539L434.73 166.797H407.331L393.86 127.443H325.591L312.12 166.797H285.634L346.369 3.20323ZM386.782 106.164L360.068 26.541H359.611L333.126 106.164H386.782Z" fill="#C0C0C0"/>
<path d="M508.202 170C492.98 170 479.585 166.415 468.017 159.246C456.601 151.925 447.696 141.857 441.303 129.044C435.062 116.079 431.942 101.436 431.942 85.1144C431.942 68.6406 435.062 53.9973 441.303 41.1844C447.696 28.2189 456.677 18.1516 468.245 10.9825C479.813 3.66083 493.208 0 508.43 0C521.673 0 533.317 2.59309 543.363 7.77927C553.562 12.8129 561.629 19.8295 567.566 28.8291C573.502 37.6761 577.155 47.6671 578.525 58.8022H552.268C551.05 52.5482 548.843 46.6756 545.647 41.1844C542.602 35.6931 537.96 31.1171 531.719 27.4563C525.63 23.6429 517.715 21.7362 507.973 21.7362C496.405 21.7362 486.891 24.6344 479.433 30.4307C472.127 36.227 466.723 43.8537 463.222 53.3109C459.873 62.7681 458.199 73.293 458.199 84.8856C458.199 96.4782 459.873 107.079 463.222 116.689C466.723 126.146 472.127 133.773 479.433 139.569C486.891 145.366 496.405 148.264 507.973 148.264C517.867 148.264 526.011 146.357 532.404 142.544C538.949 138.578 543.744 133.544 546.788 127.443C549.833 121.189 551.659 114.477 552.268 107.308H578.525C577.308 119.511 573.731 130.417 567.794 140.027C561.858 149.484 553.79 156.882 543.592 162.221C533.393 167.407 521.597 170 508.202 170Z" fill="#C0C0C0"/>
<path d="M667.584 170C651.601 170 637.521 166.339 625.344 159.017C613.319 151.696 603.958 141.629 597.26 128.816C590.715 115.85 587.442 101.207 587.442 84.8856C587.442 68.5644 590.715 53.9973 597.26 41.1844C603.958 28.2189 613.319 18.1516 625.344 10.9825C637.521 3.66083 651.601 0 667.584 0C683.567 0 697.57 3.66083 709.596 10.9825C721.773 18.1516 731.134 28.2189 737.679 41.1844C744.377 53.9973 747.725 68.5644 747.725 84.8856C747.725 101.207 744.377 115.85 737.679 128.816C731.134 141.629 721.773 151.696 709.596 159.017C697.57 166.339 683.567 170 667.584 170ZM667.584 148.264C679.913 148.264 690.112 145.442 698.179 139.798C706.247 134.154 712.107 126.604 715.76 117.147C719.566 107.537 721.468 96.7833 721.468 84.8856C721.468 73.1404 719.566 62.5393 715.76 53.0821C712.107 43.4724 706.247 35.8457 698.179 30.2019C690.112 24.5581 679.913 21.7362 667.584 21.7362C655.254 21.7362 645.056 24.5581 636.989 30.2019C628.921 35.8457 622.985 43.4724 619.179 53.0821C615.526 62.5393 613.7 73.1404 613.7 84.8856C613.7 96.7833 615.526 107.537 619.179 117.147C622.985 126.604 628.921 134.154 636.989 139.798C645.056 145.442 655.254 148.264 667.584 148.264Z" fill="#C0C0C0"/>
<path d="M766.543 3.20323H828.647C843.716 3.20323 856.654 6.40646 867.462 12.8129C878.421 19.0668 886.793 28.3715 892.577 40.7268C898.361 52.9296 901.253 67.7254 901.253 85.1144C901.253 102.503 898.361 117.299 892.577 129.502C886.945 141.705 878.726 151.009 867.918 157.416C857.111 163.67 844.173 166.797 829.103 166.797H766.543V3.20323ZM827.505 145.061C839.53 145.061 849.043 142.391 856.045 137.052C863.047 131.714 867.994 124.621 870.886 115.774C873.778 106.774 875.225 96.5545 875.225 85.1144C875.225 67.1153 871.647 52.6245 864.493 41.642C857.339 30.507 845.01 24.9394 827.505 24.9394H791.658V145.061H827.505Z" fill="#C0C0C0"/>
<path d="M920.482 3.20323H1036.01V24.9394H945.598V71.3863H1024.83V93.1225H945.598V145.061H1038.3V166.797H920.482V3.20323Z" fill="#C0C0C0"/>
<path d="M1117.56 170C1103.86 170 1091.68 167.712 1081.03 163.136C1070.37 158.407 1061.92 151.696 1055.68 143.001C1049.44 134.307 1046.02 123.858 1045.41 111.655H1071.44C1072.05 119.282 1074.02 125.841 1077.37 131.332C1080.72 136.671 1085.67 140.866 1092.21 143.917C1098.76 146.967 1106.98 148.493 1116.87 148.493C1125.24 148.493 1131.94 147.425 1136.97 145.289C1142.14 143.001 1145.79 139.951 1147.92 136.137C1150.06 132.171 1151.12 127.519 1151.12 122.18C1151.12 115.926 1149.6 111.045 1146.55 107.537C1143.66 103.876 1139.63 101.054 1134.45 99.0713C1129.28 97.0884 1121.21 94.7241 1110.25 91.9785C1109.19 91.6734 1107.59 91.2921 1105.46 90.8344C1094.34 87.9363 1085.14 84.9619 1077.83 81.9112C1070.52 78.7079 1064.36 74.1319 1059.34 68.183C1054.31 62.0816 1051.8 54.2261 1051.8 44.6164C1051.8 35.3118 1054.08 27.3037 1058.65 20.5922C1063.22 13.8807 1069.76 8.77075 1078.29 5.26245C1086.96 1.75415 1097.16 0 1108.88 0C1121.21 0 1132.02 2.05922 1141.3 6.17766C1150.74 10.1436 1158.12 16.0161 1163.45 23.7954C1168.93 31.5747 1172.05 40.9556 1172.81 51.9381H1146.78C1145.26 41.8708 1141.46 34.3203 1135.37 29.2867C1129.43 24.1005 1120.68 21.5074 1109.11 21.5074C1098.91 21.5074 1091.15 23.3378 1085.82 26.9987C1080.65 30.6595 1078.06 36.0745 1078.06 43.2436C1078.06 48.8874 1079.58 53.3872 1082.62 56.7429C1085.67 60.0987 1089.55 62.6918 1094.27 64.5222C1099.14 66.2001 1105.84 68.1068 1114.36 70.2423C1114.97 70.3948 1115.58 70.5473 1116.19 70.6999C1116.64 70.8524 1117.1 71.0049 1117.56 71.1575C1130.95 74.5132 1141.61 77.7927 1149.52 80.996C1157.59 84.1992 1164.21 89.004 1169.39 95.4105C1174.71 101.817 1177.38 110.283 1177.38 120.808C1177.38 130.417 1175.17 138.959 1170.76 146.433C1166.34 153.755 1159.65 159.551 1150.66 163.822C1141.84 167.941 1130.8 170 1117.56 170Z" fill="#C0C0C0"/>
<path d="M1274.84 170C1257.48 170 1242.34 166.568 1229.4 159.704C1216.61 152.84 1206.72 143.001 1199.72 130.188C1192.71 117.376 1189.21 102.351 1189.21 85.1144C1189.21 67.878 1192.71 52.8533 1199.72 40.0404C1206.72 27.2275 1216.61 17.389 1229.4 10.5249C1242.34 3.5083 1257.48 0 1274.84 0C1292.04 0 1307.03 3.43203 1319.82 10.2961C1332.75 17.1602 1342.65 27.0749 1349.5 40.0404C1356.5 52.8533 1360 67.878 1360 85.1144C1360 102.351 1356.5 117.376 1349.5 130.188C1342.65 143.001 1332.75 152.84 1319.82 159.704C1307.03 166.568 1292.04 170 1274.84 170ZM1274.84 155.128C1288.53 155.128 1300.48 152.306 1310.68 146.662C1320.88 140.866 1328.72 132.782 1334.2 122.409C1339.68 111.884 1342.42 99.4527 1342.42 85.1144C1342.42 70.7761 1339.68 58.3445 1334.2 47.8196C1328.72 37.2947 1320.88 29.2104 1310.68 23.5666C1300.48 17.7703 1288.53 14.8721 1274.84 14.8721C1261.14 14.8721 1249.11 17.7703 1238.76 23.5666C1228.56 29.2104 1220.72 37.2947 1215.24 47.8196C1209.76 58.3445 1207.02 70.7761 1207.02 85.1144C1207.02 99.4527 1209.76 111.884 1215.24 122.409C1220.72 132.782 1228.56 140.866 1238.76 146.662C1249.11 152.306 1261.14 155.128 1274.84 155.128ZM1276.66 136.366C1266.62 136.366 1257.94 134.231 1250.63 129.96C1243.33 125.689 1237.69 119.664 1233.74 111.884C1229.93 104.105 1228.03 95.1817 1228.03 85.1144C1228.03 75.0471 1229.86 66.1238 1233.51 58.3445C1237.31 50.5653 1242.72 44.5401 1249.72 40.2692C1256.72 35.8457 1265.09 33.6339 1274.84 33.6339C1283.51 33.6339 1291.05 35.3118 1297.44 38.6676C1303.98 41.8708 1309.08 46.2943 1312.74 51.9381C1316.54 57.5819 1318.83 63.9121 1319.59 70.9287H1300.41C1299.8 66.2001 1297.59 61.7766 1293.79 57.6581C1289.98 53.3872 1283.89 51.2517 1275.52 51.2517C1268.82 51.2517 1263.42 52.777 1259.31 55.8277C1255.2 58.7259 1252.23 62.6918 1250.4 67.7254C1248.73 72.7591 1247.89 78.5554 1247.89 85.1144C1247.89 95.1817 1250.02 103.342 1254.29 109.596C1258.55 115.698 1265.63 118.748 1275.52 118.748C1284.04 118.748 1290.13 116.689 1293.79 112.571C1297.59 108.452 1299.8 103.876 1300.41 98.8425H1319.59C1319.13 105.859 1317.15 112.266 1313.65 118.062C1310.15 123.706 1305.2 128.205 1298.81 131.561C1292.57 134.764 1285.19 136.366 1276.66 136.366Z" fill="#C0C0C0"/>
</svg>
